PathFileType	4	(X/Y/Z)	/Users/itak/Documents/Research/Walk-IL/dataset/trc/00348_00011.trc
DataRate	CameraRate	NumFrames	NumMarkers	Units	OrigDataRate	OrigDataStartFrame	OrigNumFrames
100.000000	100.000000	4	56	mm	100.000000	247	660
Frame#	Time	RPSI			LPSI			STRN			T10			C7			CLAV			RBAK			LBAK			LSHO			LUPA			LAEL			LAOL			LWTS			LWPS			LFRA			LHPS			LHTS			RSHO			RUPA			RAEL			RAOL			RWTS			RWPS			RFRA			RIFD			RHTS			RHPS			RBHD			LFHD			RFHD			LBHD			LHIP			RHIP			RASI			LASI			LKNE			LTHI			LANK			LTIP			LTOE			LMT1			LMT5			LHEE			RKNE			RANK			RTIP			RTOE			RMT1			RMT5			RHEE			RTHI			L3			LIFD			*53			*54			*55			
		X1	Y1	Z1	X2	Y2	Z2	X3	Y3	Z3	X4	Y4	Z4	X5	Y5	Z5	X6	Y6	Z6	X7	Y7	Z7	X8	Y8	Z8	X9	Y9	Z9	X10	Y10	Z10	X11	Y11	Z11	X12	Y12	Z12	X13	Y13	Z13	X14	Y14	Z14	X15	Y15	Z15	X16	Y16	Z16	X17	Y17	Z17	X18	Y18	Z18	X19	Y19	Z19	X20	Y20	Z20	X21	Y21	Z21	X22	Y22	Z22	X23	Y23	Z23	X24	Y24	Z24	X25	Y25	Z25	X26	Y26	Z26	X27	Y27	Z27	X28	Y28	Z28	X29	Y29	Z29	X30	Y30	Z30	X31	Y31	Z31	X32	Y32	Z32	X33	Y33	Z33	X34	Y34	Z34	X35	Y35	Z35	X36	Y36	Z36	X37	Y37	Z37	X38	Y38	Z38	X39	Y39	Z39	X40	Y40	Z40	X41	Y41	Z41	X42	Y42	Z42	X43	Y43	Z43	X44	Y44	Z44	X45	Y45	Z45	X46	Y46	Z46	X47	Y47	Z47	X48	Y48	Z48	X49	Y49	Z49	X50	Y50	Z50	X51	Y51	Z51	X52	Y52	Z52	X53	Y53	Z53	X54	Y54	Z54	X55	Y55	Z55	X56	Y56	Z56	

248	2.47	-388.3760070800781	942.1215209960938	372.2300415039062	-515.9999389648438	958.0480346679688	386.3627014160156	-467.5525512695312	1191.019165039062	144.5868377685547	-479.1889343261719	1132.820678710938	387.4251098632812	-492.4113464355469	1378.217407226562	336.082275390625	-469.9985046386719	1318.16015625	183.4713439941406	-435.9355163574219	1239.647583007812	392.7527465820312	-595.1685791015625	1342.884399414062	337.6248168945312	-638.177490234375	1363.8046875	247.1994171142578	-724.01171875	1258.241821289062	245.3569030761719	-794.639892578125	1080.596069335938	172.1670989990234	-746.1893310546875	1033.690307617188	226.0421752929688	-811.9915771484375	893.962890625	-6.129245758056641	-868.736083984375	880.8352661132812	31.76168632507324	-828.2151489257812	993.0452270507812	124.1406326293945	-882.20263671875	817.9189453125	4.803098201751709	-850.0357666015625	836.7164306640625	-48.16107177734375	-326.0514221191406	1362.214599609375	301.7891845703125	-272.2234191894531	1303.4892578125	335.3792419433594	-253.5240631103516	1051.819702148438	418.1114807128906	-345.7337036132812	1042.797973632812	403.8913269042969	-227.5155792236328	800.2327270507812	376.6401062011719	-196.8948211669922	806.620849609375	447.2700500488281	-232.2488403320312	984.358154296875	424.1993713378906	-217.9944000244141	634.7615356445312	431.1381530761719	-201.3964385986328	698.2235717773438	397.1666259765625	-190.1663208007812	723.2398071289062	461.7932739257812	-398.2257385253906	1581.26904296875	285.9931640625	-483.4927673339844	1580.236938476562	95.70342254638672	-386.5523071289062	1576.78955078125	123.0411605834961	-541.4603881835938	1584.780151367188	273.2008972167969	-635.8221435546875	906.5057983398438	319.6043090820312	-297.7075805664062	882.1996459960938	272.9671020507812	-355.1320495605469	919.6759033203125	179.81884765625	-595.5032958984375	924.4735107421875	190.0433807373047	-643.51171875	454.1431274414062	347.3510437011719	-646.46728515625	592.2551879882812	323.5636291503906	-616.5796508789062	58.85903930664062	532.2744140625	-642.12841796875	247.9568481445312	439.1683654785156	-609.6661376953125	41.11858367919922	320.6341857910156	-551.4391479492188	29.19154930114746	377.6029052734375	-658.6858520507812	44.4953498840332	415.7066955566406	-542.61962890625	55.39027786254883	549.227294921875	-392.6734313964844	450.5623474121094	91.50263977050781	-482.034912109375	50.03816604614258	4.002756595611572	-414.5713195800781	344.2605590820312	43.97953033447266	-485.388671875	117.1431655883789	-180.4779510498047	-538.725830078125	95.55756378173828	-142.7849578857422	-439.5325927734375	65.19574737548828	-88.15720367431641	-538.456298828125	44.92601013183594	44.54899215698242	-320.8426208496094	696.4102172851562	150.8811798095703	-458.1420593261719	1015.954833984375	384.3659362792969	-843.923583984375	757.548095703125	-77.82550811767578	nan	nan	nan	nan	nan	nan	nan	nan	nan	
249	2.48	-388.1734008789062	940.0623779296875	362.8627624511719	-515.7163696289062	956.642578125	377.2521667480469	-466.81640625	1189.215454101562	135.6539764404297	-479.0247497558594	1130.963745117188	378.2244262695312	-492.2839660644531	1376.319702148438	327.0935363769531	-469.2810974121094	1316.395141601562	174.5338439941406	-436.1274108886719	1237.803955078125	383.9885864257812	-595.0420532226562	1341.099853515625	328.3454284667969	-637.7316284179688	1361.915283203125	237.7764892578125	-723.4095458984375	1256.31640625	235.4470672607422	-793.77978515625	1079.0087890625	161.5078735351562	-745.7307739257812	1031.795776367188	215.3594665527344	-809.8733520507812	894.79052734375	-18.96495056152344	-866.8328247070312	880.8561401367188	18.32441329956055	-827.3168334960938	991.9998779296875	112.4797897338867	-879.780029296875	818.2137451171875	-9.627370834350586	-847.3338623046875	837.9299926757812	-62.07377243041992	-325.7495422363281	1360.367065429688	293.5498046875	-272.3392333984375	1301.408935546875	327.5604858398438	-255.8757629394531	1049.856079101562	410.8892517089844	-347.8059387207031	1041.011840820312	395.1987609863281	-229.474609375	798.1041870117188	371.2657775878906	-199.9927215576172	804.953857421875	442.3309631347656	-234.7413177490234	982.4981689453125	417.5724792480469	-221.7897338867188	632.8843383789062	427.615966796875	-204.3923950195312	695.8981323242188	393.2642517089844	-193.9247283935547	721.6644287109375	457.7863159179688	-398.3887023925781	1579.5224609375	277.8034973144531	-481.8493041992188	1578.543212890625	86.72439575195312	-385.2059326171875	1575.139038085938	115.0213928222656	-541.4642944335938	1582.947509765625	263.6672058105469	-635.9049682617188	905.5009765625	310.8572692871094	-298.1653137207031	879.7678833007812	263.685791015625	-355.3838195800781	917.2053833007812	170.4296722412109	-595.76171875	923.0611572265625	181.0386810302734	-643.9920043945312	454.1021423339844	343.1856079101562	-646.9302368164062	591.9452514648438	318.0260620117188	-616.5007934570312	60.2166633605957	531.8878173828125	-642.2861328125	248.6896667480469	437.0595092773438	-609.6842041015625	40.99141311645508	320.5393981933594	-551.4828491210938	29.32012176513672	377.3516845703125	-658.67919921875	44.76184463500977	415.5107421875	-542.5739135742188	57.32032775878906	548.7723999023438	-392.7475891113281	446.6141357421875	84.71067047119141	-479.3283081054688	50.1700553894043	-18.89208221435547	-413.4442443847656	343.3375244140625	33.93437194824219	-480.0223999023438	124.1661529541016	-200.7771453857422	-534.0391845703125	101.311164855957	-164.7288513183594	-435.3720092773438	68.76408386230469	-109.9012145996094	-536.3756713867188	43.34880065917969	20.74588394165039	-320.9029846191406	692.4215087890625	143.6614685058594	-457.849609375	1014.108520507812	374.7149353027344	-840.5151977539062	759.2298583984375	-92.77438354492188	nan	nan	nan	nan	nan	nan	nan	nan	nan	
250	2.49	-387.874755859375	937.9022216796875	353.4450073242188	-515.2986450195312	955.212158203125	368.0586853027344	-465.9272155761719	1187.420776367188	126.6066360473633	-478.5775451660156	1129.04052734375	368.7157592773438	-491.9400939941406	1374.466430664062	317.9996643066406	-468.3829345703125	1314.642333984375	165.483154296875	-436.0745544433594	1235.9482421875	375.1169738769531	-594.6871337890625	1339.328369140625	319.020263671875	-637.1000366210938	1359.989379882812	228.3196716308594	-722.5423583984375	1254.264892578125	225.6134643554688	-792.6151123046875	1077.247924804688	151.0747222900391	-744.9572143554688	1029.758666992188	204.8846130371094	-807.4415893554688	895.3250122070312	-31.40517997741699	-864.6112060546875	880.6187744140625	5.281290531158447	-826.0648803710938	990.763427734375	101.1180725097656	-877.015380859375	818.22607421875	-23.58391952514648	-844.3042602539062	838.8004150390625	-75.52293395996094	-325.2336730957031	1358.508056640625	285.1784057617188	-272.1975402832031	1299.316772460938	319.540283203125	-257.9104309082031	1047.839477539062	403.3905944824219	-349.5709228515625	1039.2060546875	386.3422546386719	-231.3195953369141	795.9692993164062	365.4388732910156	-202.8834228515625	803.1929931640625	436.8762512207031	-236.9506225585938	980.5790405273438	410.6092224121094	-225.5578308105469	630.951904296875	423.3665161132812	-207.2061157226562	693.6842651367188	388.6663818359375	-197.5552520751953	719.964111328125	453.1393127441406	-398.3697814941406	1577.83447265625	269.5174560546875	-480.0767517089844	1576.8720703125	77.68389129638672	-383.7384948730469	1573.521484375	106.9234390258789	-541.2809448242188	1581.151489257812	254.0750274658203	-635.8881225585938	904.546142578125	301.9826354980469	-298.5440673828125	877.3162841796875	254.3096313476562	-355.5556945800781	914.7081909179688	160.9315338134766	-595.930908203125	921.6624755859375	171.88818359375	-644.5494995117188	454.0803833007812	338.6339111328125	-647.4266357421875	591.6657104492188	312.178955078125	-616.6219482421875	61.75713729858398	531.4616088867188	-642.6016845703125	249.5251007080078	434.6785888671875	-609.7095336914062	40.86465454101562	320.4478454589844	-551.5767211914062	29.50371932983398	377.0885620117188	-658.7498779296875	45.02982711791992	415.2772521972656	-542.7447509765625	59.46313858032227	548.30322265625	-392.5613708496094	443.2145690917969	76.94426727294922	-476.2459716796875	50.41940689086914	-38.99481964111328	-412.0980224609375	342.5392456054688	23.85335350036621	-474.7408447265625	129.6952056884766	-218.5926513671875	-529.3292236328125	105.9915313720703	-183.9057769775391	-431.0487670898438	71.66020965576172	-128.9618072509766	-533.8380126953125	42.25481033325195	-0.1606899499893188	-320.8845825195312	688.7986450195312	135.8857269287109	-457.4104919433594	1012.233581542969	364.96337890625	-836.7796630859375	760.549560546875	-107.1656799316406	nan	nan	nan	nan	nan	nan	nan	nan	nan	
251	2.5	-387.5015869140625	935.7034301757812	343.9902038574219	-514.7802734375	953.7798461914062	358.7644958496094	-464.8764953613281	1185.656860351562	117.4332504272461	-477.8852233886719	1127.093872070312	358.9154663085938	-491.3817749023438	1372.678955078125	308.7939147949219	-467.30078125	1312.924194335938	156.3063507080078	-435.8072814941406	1234.114013671875	366.1289978027344	-594.1109008789062	1337.603393554688	309.6280822753906	-636.2803344726562	1358.058471679688	218.7994537353516	-721.4186401367188	1252.120727539062	215.8362274169922	-791.1718139648438	1075.33837890625	140.8617706298828	-743.8597412109375	1027.613403320312	194.6238555908203	-804.7098388671875	895.5694580078125	-43.44242477416992	-862.08154296875	880.13916015625	-7.351694107055664	-824.4627075195312	989.3536376953125	90.06698608398438	-873.9320678710938	817.971923828125	-37.04637908935547	-840.9705810546875	839.336669921875	-88.49729919433594	-324.5115661621094	1356.656494140625	276.6736145019531	-271.8064880371094	1297.24658203125	311.3256530761719	-259.6182556152344	1045.790649414062	395.6123352050781	-351.0319213867188	1037.400634765625	377.3365173339844	-233.0393524169922	793.8352661132812	359.1431274414062	-205.5407867431641	801.3536376953125	430.89111328125	-238.8686370849609	978.6183471679688	403.3059692382812	-229.2577209472656	628.9954223632812	418.3909606933594	-209.8340301513672	691.5847778320312	383.3778076171875	-201.0166778564453	718.1491088867188	447.8341979980469	-398.159912109375	1576.231079101562	261.1287231445312	-478.1739196777344	1575.253662109375	68.58047485351562	-382.1440734863281	1571.966674804688	98.73500061035156	-540.906494140625	1579.412841796875	244.4243316650391	-635.7669067382812	903.630126953125	292.9527282714844	-298.8233337402344	874.9237060546875	244.8661804199219	-355.62890625	912.253662109375	151.3440856933594	-596.01513671875	920.2758178710938	162.5913848876953	-645.1851196289062	454.0580749511719	333.6541748046875	-647.938232421875	591.389892578125	305.9748229980469	-616.9590454101562	63.50092315673828	530.9696044921875	-643.0762939453125	250.4591064453125	431.996826171875	-609.7407836914062	40.73952865600586	320.3550415039062	-551.718505859375	29.75454711914062	376.8189086914062	-658.9037475585938	45.3020133972168	414.99658203125	-543.1358032226562	61.83416366577148	547.8125	-392.1064758300781	440.4587097167969	68.21298217773438	-473.0326538085938	50.47264099121094	-56.05899810791016	-410.55810546875	341.7449645996094	13.69635105133057	-469.5496520996094	133.3131408691406	-233.8805694580078	-524.6454467773438	109.16015625	-200.2978210449219	-426.7144470214844	73.49880218505859	-145.1228637695312	-531.12255859375	41.39704895019531	-17.97940635681152	-320.7882690429688	685.702392578125	127.4645080566406	-456.8576965332031	1010.377685546875	355.1547241210938	-832.771728515625	761.509033203125	-120.9904937744141	nan	nan	nan	nan	nan	nan	nan	nan	nan	
